<svg width="295" height="277" viewBox="0 0 295 277" fill="none" xmlns="http://www.w3.org/2000/svg">
<g clip-path="url(#clip0_11_5)">
<g filter="url(#filter0_d_11_5)">
<path d="M90.9091 113V69.3636H106.165C109.205 69.3636 111.712 69.8892 113.686 70.9403C115.661 71.9773 117.131 73.3764 118.097 75.1378C119.063 76.8849 119.545 78.8239 119.545 80.9545C119.545 82.8295 119.212 84.3778 118.544 85.5994C117.891 86.821 117.024 87.7869 115.945 88.4972C114.879 89.2074 113.722 89.733 112.472 90.0739V90.5C113.807 90.5852 115.149 91.054 116.499 91.9062C117.848 92.7585 118.977 93.9801 119.886 95.571C120.795 97.1619 121.25 99.108 121.25 101.409C121.25 103.597 120.753 105.564 119.759 107.311C118.764 109.058 117.195 110.443 115.05 111.466C112.905 112.489 110.114 113 106.676 113H90.9091ZM96.1932 108.312H106.676C110.128 108.312 112.578 107.645 114.027 106.31C115.49 104.96 116.222 103.327 116.222 101.409C116.222 99.9318 115.845 98.5682 115.092 97.3182C114.339 96.054 113.267 95.0455 111.875 94.2926C110.483 93.5256 108.835 93.142 106.932 93.142H96.1932V108.312ZM96.1932 88.5398H105.994C107.585 88.5398 109.02 88.2273 110.298 87.6023C111.591 86.9773 112.614 86.0966 113.366 84.9602C114.134 83.8239 114.517 82.4886 114.517 80.9545C114.517 79.0369 113.849 77.4105 112.514 76.0753C111.179 74.7259 109.063 74.0511 106.165 74.0511H96.1932V88.5398ZM132.489 125.273C131.637 125.273 130.877 125.202 130.21 125.06C129.542 124.932 129.08 124.804 128.825 124.676L130.103 120.244C131.325 120.557 132.404 120.67 133.342 120.585C134.279 120.5 135.11 120.081 135.835 119.328C136.573 118.589 137.248 117.389 137.859 115.727L138.796 113.17L126.694 80.2727H132.148L141.183 106.352H141.523L150.558 80.2727H156.012L142.12 117.773C141.495 119.463 140.721 120.862 139.798 121.97C138.874 123.092 137.802 123.923 136.58 124.463C135.373 125.003 134.009 125.273 132.489 125.273ZM176.882 80.2727V84.5341H159.922V80.2727H176.882ZM164.865 72.4318H169.893V103.625C169.893 105.045 170.099 106.111 170.511 106.821C170.938 107.517 171.477 107.986 172.131 108.227C172.798 108.455 173.501 108.568 174.24 108.568C174.794 108.568 175.249 108.54 175.604 108.483C175.959 108.412 176.243 108.355 176.456 108.312L177.479 112.83C177.138 112.957 176.662 113.085 176.051 113.213C175.44 113.355 174.666 113.426 173.729 113.426C172.308 113.426 170.916 113.121 169.553 112.51C168.203 111.899 167.081 110.969 166.186 109.719C165.305 108.469 164.865 106.892 164.865 104.989V72.4318ZM197.816 113.682C194.663 113.682 191.942 112.986 189.656 111.594C187.383 110.188 185.629 108.227 184.393 105.713C183.171 103.185 182.56 100.244 182.56 96.892C182.56 93.5398 183.171 90.5852 184.393 88.0284C185.629 85.4574 187.347 83.4545 189.549 82.0199C191.765 80.571 194.35 79.8466 197.305 79.8466C199.009 79.8466 200.692 80.1307 202.354 80.6989C204.016 81.267 205.529 82.1903 206.893 83.4688C208.256 84.733 209.343 86.4091 210.153 88.4972C210.962 90.5852 211.367 93.1562 211.367 96.2102V98.3409H186.14V93.9943H206.254C206.254 92.1477 205.884 90.5 205.146 89.0511C204.421 87.6023 203.384 86.4588 202.035 85.6207C200.7 84.7827 199.123 84.3636 197.305 84.3636C195.302 84.3636 193.569 84.8608 192.106 85.8551C190.657 86.8352 189.542 88.1136 188.761 89.6903C187.979 91.267 187.589 92.9574 187.589 94.7614V97.6591C187.589 100.131 188.015 102.226 188.867 103.945C189.734 105.649 190.934 106.949 192.468 107.844C194.002 108.724 195.785 109.165 197.816 109.165C199.137 109.165 200.33 108.98 201.396 108.611C202.475 108.227 203.406 107.659 204.187 106.906C204.968 106.139 205.572 105.187 205.998 104.051L210.856 105.415C210.344 107.062 209.485 108.511 208.278 109.761C207.07 110.997 205.579 111.963 203.803 112.659C202.028 113.341 200.032 113.682 197.816 113.682ZM171.875 186H158.409V142.364H172.472C176.705 142.364 180.327 143.237 183.338 144.984C186.349 146.717 188.658 149.21 190.263 152.463C191.868 155.702 192.67 159.58 192.67 164.097C192.67 168.642 191.861 172.555 190.241 175.837C188.622 179.104 186.264 181.618 183.168 183.379C180.071 185.126 176.307 186 171.875 186ZM163.693 181.312H171.534C175.142 181.312 178.132 180.616 180.504 179.224C182.876 177.832 184.645 175.851 185.81 173.28C186.974 170.709 187.557 167.648 187.557 164.097C187.557 160.574 186.982 157.541 185.831 154.999C184.68 152.442 182.962 150.482 180.675 149.118C178.388 147.74 175.54 147.051 172.131 147.051H163.693V181.312ZM200.852 186V153.273H205.881V186H200.852ZM203.409 147.818C202.429 147.818 201.584 147.484 200.874 146.817C200.178 146.149 199.83 145.347 199.83 144.409C199.83 143.472 200.178 142.669 200.874 142.001C201.584 141.334 202.429 141 203.409 141C204.389 141 205.227 141.334 205.923 142.001C206.634 142.669 206.989 143.472 206.989 144.409C206.989 145.347 206.634 146.149 205.923 146.817C205.227 147.484 204.389 147.818 203.409 147.818ZM228.386 186.682C225.318 186.682 222.676 185.957 220.46 184.509C218.244 183.06 216.539 181.064 215.346 178.521C214.153 175.979 213.556 173.074 213.556 169.807C213.556 166.483 214.167 163.55 215.389 161.007C216.625 158.45 218.343 156.455 220.545 155.02C222.761 153.571 225.346 152.847 228.301 152.847C230.602 152.847 232.676 153.273 234.522 154.125C236.369 154.977 237.882 156.17 239.061 157.705C240.24 159.239 240.971 161.028 241.255 163.074H236.227C235.843 161.582 234.991 160.261 233.67 159.111C232.363 157.946 230.602 157.364 228.386 157.364C226.426 157.364 224.707 157.875 223.23 158.898C221.767 159.906 220.623 161.334 219.799 163.18C218.99 165.013 218.585 167.165 218.585 169.636C218.585 172.165 218.983 174.366 219.778 176.241C220.588 178.116 221.724 179.572 223.187 180.609C224.664 181.646 226.397 182.165 228.386 182.165C229.693 182.165 230.879 181.938 231.944 181.483C233.01 181.028 233.912 180.375 234.65 179.523C235.389 178.67 235.914 177.648 236.227 176.455H241.255C240.971 178.386 240.268 180.126 239.146 181.675C238.038 183.209 236.568 184.43 234.735 185.339C232.917 186.234 230.801 186.682 228.386 186.682ZM262.328 186.682C259.174 186.682 256.454 185.986 254.167 184.594C251.895 183.188 250.14 181.227 248.904 178.713C247.683 176.185 247.072 173.244 247.072 169.892C247.072 166.54 247.683 163.585 248.904 161.028C250.14 158.457 251.859 156.455 254.061 155.02C256.277 153.571 258.862 152.847 261.816 152.847C263.521 152.847 265.204 153.131 266.866 153.699C268.528 154.267 270.041 155.19 271.404 156.469C272.768 157.733 273.855 159.409 274.664 161.497C275.474 163.585 275.879 166.156 275.879 169.21V171.341H250.652V166.994H270.765C270.765 165.148 270.396 163.5 269.657 162.051C268.933 160.602 267.896 159.459 266.547 158.621C265.211 157.783 263.635 157.364 261.816 157.364C259.814 157.364 258.081 157.861 256.618 158.855C255.169 159.835 254.054 161.114 253.272 162.69C252.491 164.267 252.1 165.957 252.1 167.761V170.659C252.1 173.131 252.527 175.226 253.379 176.945C254.245 178.649 255.446 179.949 256.98 180.844C258.514 181.724 260.297 182.165 262.328 182.165C263.649 182.165 264.842 181.98 265.907 181.611C266.987 181.227 267.917 180.659 268.699 179.906C269.48 179.139 270.083 178.187 270.51 177.051L275.368 178.415C274.856 180.062 273.997 181.511 272.789 182.761C271.582 183.997 270.091 184.963 268.315 185.659C266.539 186.341 264.544 186.682 262.328 186.682Z" fill="#C99683"/>
<path d="M90.9091 113H89.9091V114H90.9091V113ZM90.9091 69.3636V68.3636H89.9091V69.3636H90.9091ZM113.686 70.9403L113.216 71.8231L113.221 71.8257L113.686 70.9403ZM118.097 75.1378L117.22 75.6186L117.221 75.6216L118.097 75.1378ZM118.544 85.5994L117.666 85.1198L117.662 85.1278L118.544 85.5994ZM115.945 88.4972L115.395 87.6617L115.39 87.6651L115.945 88.4972ZM112.472 90.0739L112.208 89.1091L111.472 89.3101V90.0739H112.472ZM112.472 90.5H111.472V91.4382L112.408 91.498L112.472 90.5ZM116.499 91.9062L115.965 92.7517L115.965 92.7517L116.499 91.9062ZM119.886 95.571L119.018 96.0672L119.886 95.571ZM119.759 107.311L120.628 107.806L120.628 107.806L119.759 107.311ZM115.05 111.466L114.619 110.563L114.619 110.563L115.05 111.466ZM96.1932 108.312H95.1932V109.312H96.1932V108.312ZM114.027 106.31L114.705 107.045L114.705 107.045L114.027 106.31ZM115.092 97.3182L114.233 97.8298L114.236 97.8341L115.092 97.3182ZM111.875 94.2926L111.392 95.1685L111.399 95.1722L111.875 94.2926ZM96.1932 93.142V92.142H95.1932V93.142H96.1932ZM96.1932 88.5398H95.1932V89.5398H96.1932V88.5398ZM110.298 87.6023L109.863 86.702L109.859 86.7039L110.298 87.6023ZM113.366 84.9602L112.538 84.4007L112.533 84.4079L113.366 84.9602ZM112.514 76.0753L111.803 76.7786L111.807 76.7824L112.514 76.0753ZM96.1932 74.0511V73.0511H95.1932V74.0511H96.1932ZM91.9091 113V69.3636H89.9091V113H91.9091ZM90.9091 70.3636H106.165V68.3636H90.9091V70.3636ZM106.165 70.3636C109.097 70.3636 111.429 70.8716 113.216 71.823L114.156 70.0576C111.994 68.9068 109.312 68.3636 106.165 68.3636V70.3636ZM113.221 71.8257C115.041 72.7816 116.359 74.0484 117.22 75.6186L118.973 74.657C117.903 72.7045 116.28 71.1729 114.151 70.055L113.221 71.8257ZM117.221 75.6216C118.1 77.2107 118.545 78.9814 118.545 80.9545H120.545C120.545 78.6664 120.025 76.5592 118.972 74.654L117.221 75.6216ZM118.545 80.9545C118.545 82.7177 118.231 84.0875 117.667 85.1199L119.422 86.079C120.193 84.6682 120.545 82.9414 120.545 80.9545H118.545ZM117.662 85.1278C117.082 86.2132 116.325 87.0497 115.395 87.6617L116.494 89.3326C117.723 88.5241 118.7 87.4288 119.426 86.0711L117.662 85.1278ZM115.39 87.6651C114.415 88.315 113.356 88.7961 112.208 89.1091L112.735 91.0386C114.087 90.6698 115.343 90.0998 116.499 89.3292L115.39 87.6651ZM111.472 90.0739V90.5H113.472V90.0739H111.472ZM112.408 91.498C113.547 91.5707 114.729 91.9716 115.965 92.7517L117.033 91.0608C115.569 90.1363 114.067 89.5998 112.535 89.502L112.408 91.498ZM115.965 92.7517C117.156 93.5045 118.178 94.5971 119.018 96.0672L120.755 95.0749C119.776 93.3631 118.54 92.0126 117.033 91.0608L115.965 92.7517ZM119.018 96.0672C119.821 97.473 120.25 99.2381 120.25 101.409H122.25C122.25 98.9778 121.769 96.8509 120.755 95.0749L119.018 96.0672ZM120.25 101.409C120.25 103.439 119.79 105.233 118.889 106.816L120.628 107.806C121.715 105.895 122.25 103.754 122.25 101.409H120.25ZM118.889 106.816C118.014 108.355 116.614 109.612 114.619 110.563L115.48 112.369C117.775 111.274 119.515 109.761 120.628 107.806L118.889 106.816ZM114.619 110.563C112.655 111.5 110.026 112 106.676 112V114C110.201 114 113.155 113.477 115.48 112.369L114.619 110.563ZM106.676 112H90.9091V114H106.676V112ZM96.1932 109.312H106.676V107.312H96.1932V109.312ZM106.676 109.312C110.206 109.312 112.975 108.639 114.705 107.045L113.349 105.574C112.182 106.65 110.049 107.312 106.676 107.312V109.312ZM114.705 107.045C116.364 105.514 117.222 103.618 117.222 101.409H115.222C115.222 103.036 114.616 104.406 113.349 105.575L114.705 107.045ZM117.222 101.409C117.222 99.7524 116.797 98.21 115.949 96.8023L114.236 97.8341C114.894 98.9263 115.222 100.111 115.222 101.409H117.222ZM115.952 96.8065C115.099 95.3756 113.889 94.2449 112.351 93.413L111.399 95.1722C112.645 95.846 113.58 96.7323 114.233 97.8298L115.952 96.8065ZM112.358 93.4168C110.791 92.5536 108.971 92.142 106.932 92.142V94.142C108.7 94.142 110.175 94.4975 111.392 95.1685L112.358 93.4168ZM106.932 92.142H96.1932V94.142H106.932V92.142ZM95.1932 93.142V108.312H97.1932V93.142H95.1932ZM96.1932 89.5398H105.994V87.5398H96.1932V89.5398ZM105.994 89.5398C107.719 89.5398 109.307 89.2 110.738 88.5007L109.859 86.7039C108.733 87.2545 107.451 87.5398 105.994 87.5398V89.5398ZM110.734 88.5026C112.179 87.8038 113.343 86.8066 114.2 85.5125L112.533 84.4079C111.884 85.3865 111.003 86.1508 109.863 86.702L110.734 88.5026ZM114.195 85.5197C115.087 84.1988 115.517 82.6634 115.517 80.9545H113.517C113.517 82.3139 113.18 83.4489 112.538 84.4008L114.195 85.5197ZM115.517 80.9545C115.517 78.7763 114.747 76.8942 113.221 75.3682L111.807 76.7824C112.952 77.9268 113.517 79.2975 113.517 80.9545H115.517ZM113.225 75.3719C111.623 73.7529 109.191 73.0511 106.165 73.0511V75.0511C108.934 75.0511 110.735 75.6988 111.803 76.7786L113.225 75.3719ZM106.165 73.0511H96.1932V75.0511H106.165V73.0511ZM95.1932 74.0511V88.5398H97.1932V74.0511H95.1932ZM130.21 125.06L130.418 124.082L130.408 124.079L130.398 124.078L130.21 125.06ZM128.825 124.676L127.864 124.399L127.633 125.198L128.377 125.571L128.825 124.676ZM130.103 120.244L130.351 119.276L129.411 119.035L129.142 119.967L130.103 120.244ZM133.342 120.585L133.251 119.589L133.251 119.589L133.342 120.585ZM135.835 119.328L135.127 118.621L135.121 118.628L135.114 118.635L135.835 119.328ZM137.859 115.727L138.797 116.072L138.798 116.072L137.859 115.727ZM138.796 113.17L139.735 113.515L139.861 113.17L139.735 112.825L138.796 113.17ZM126.694 80.2727V79.2727H125.26L125.755 80.618L126.694 80.2727ZM132.148 80.2727L133.093 79.9454L132.86 79.2727H132.148V80.2727ZM141.183 106.352L140.238 106.68L140.471 107.352H141.183V106.352ZM141.523 106.352V107.352H142.235L142.468 106.68L141.523 106.352ZM150.558 80.2727V79.2727H149.846L149.613 79.9454L150.558 80.2727ZM156.012 80.2727L156.95 80.6201L157.449 79.2727H156.012V80.2727ZM142.12 117.773L141.182 117.425L141.182 117.426L142.12 117.773ZM139.798 121.97L139.029 121.33L139.025 121.335L139.798 121.97ZM136.58 124.463L136.176 123.548L136.172 123.55L136.58 124.463ZM132.489 124.273C131.691 124.273 131.002 124.206 130.418 124.082L130.001 126.038C130.752 126.197 131.584 126.273 132.489 126.273V124.273ZM130.398 124.078C129.73 123.95 129.392 123.842 129.272 123.782L128.377 125.571C128.769 125.766 129.353 125.914 130.021 126.042L130.398 124.078ZM129.785 124.953L131.064 120.521L129.142 119.967L127.864 124.399L129.785 124.953ZM129.855 121.213C131.152 121.545 132.35 121.68 133.432 121.581L133.251 119.589C132.458 119.661 131.497 119.569 130.351 119.276L129.855 121.213ZM133.432 121.581C134.636 121.472 135.684 120.927 136.555 120.022L135.114 118.635C134.537 119.235 133.922 119.528 133.251 119.589L133.432 121.581ZM136.542 120.035C137.43 119.146 138.167 117.788 138.797 116.072L136.92 115.382C136.329 116.99 135.716 118.033 135.127 118.621L136.542 120.035ZM138.798 116.072L139.735 113.515L137.857 112.826L136.92 115.383L138.798 116.072ZM139.735 112.825L127.632 79.9275L125.755 80.618L137.858 113.516L139.735 112.825ZM126.694 81.2727H132.148V79.2727H126.694V81.2727ZM131.204 80.6L140.238 106.68L142.127 106.025L133.093 79.9454L131.204 80.6ZM141.183 107.352H141.523V105.352H141.183V107.352ZM142.468 106.68L151.502 80.6L149.613 79.9454L140.579 106.025L142.468 106.68ZM150.558 81.2727H156.012V79.2727H150.558V81.2727ZM155.074 79.9253L141.182 117.425L143.058 118.12L156.95 80.6201L155.074 79.9253ZM141.182 117.426C140.587 119.035 139.864 120.328 139.029 121.33L140.566 122.61C141.578 121.396 142.403 119.891 143.058 118.12L141.182 117.426ZM139.025 121.335C138.192 122.347 137.243 123.077 136.176 123.548L136.984 125.378C138.361 124.769 139.556 123.837 140.57 122.606L139.025 121.335ZM136.172 123.55C135.111 124.025 133.889 124.273 132.489 124.273V126.273C134.129 126.273 135.635 125.981 136.988 125.376L136.172 123.55ZM176.882 80.2727H177.882V79.2727H176.882V80.2727ZM176.882 84.5341V85.5341H177.882V84.5341H176.882ZM159.922 84.5341H158.922V85.5341H159.922V84.5341ZM159.922 80.2727V79.2727H158.922V80.2727H159.922ZM164.865 72.4318V71.4318H163.865V72.4318H164.865ZM169.893 72.4318H170.893V71.4318H169.893V72.4318ZM170.511 106.821L169.646 107.323L169.652 107.333L169.659 107.343L170.511 106.821ZM172.131 108.227L171.784 109.165L171.796 109.17L171.808 109.174L172.131 108.227ZM175.604 108.483L175.762 109.47L175.781 109.467L175.8 109.464L175.604 108.483ZM176.456 108.312L177.431 108.092L177.216 107.141L176.26 107.332L176.456 108.312ZM177.479 112.83L177.83 113.766L178.647 113.46L178.454 112.609L177.479 112.83ZM176.051 113.213L175.846 112.234L175.835 112.237L175.825 112.239L176.051 113.213ZM169.553 112.51L169.14 113.421L169.144 113.423L169.553 112.51ZM166.186 109.719L165.369 110.295L165.373 110.301L166.186 109.719ZM175.882 80.2727V84.5341H177.882V80.2727H175.882ZM176.882 83.5341H159.922V85.5341H176.882V83.5341ZM160.922 84.5341V80.2727H158.922V84.5341H160.922ZM159.922 81.2727H176.882V79.2727H159.922V81.2727ZM164.865 73.4318H169.893V71.4318H164.865V73.4318ZM168.893 72.4318V103.625H170.893V72.4318H168.893ZM168.893 103.625C168.893 105.109 169.103 106.386 169.646 107.323L171.376 106.319C171.096 105.836 170.893 104.982 170.893 103.625H168.893ZM169.659 107.343C170.181 108.196 170.885 108.833 171.784 109.165L172.477 107.289C172.069 107.139 171.694 106.838 171.364 106.299L169.659 107.343ZM171.808 109.174C172.585 109.438 173.397 109.568 174.24 109.568V107.568C173.606 107.568 173.012 107.471 172.453 107.281L171.808 109.174ZM174.24 109.568C174.822 109.568 175.334 109.539 175.762 109.47L175.446 107.496C175.163 107.541 174.766 107.568 174.24 107.568V109.568ZM175.8 109.464C176.155 109.393 176.439 109.336 176.652 109.293L176.26 107.332C176.047 107.375 175.763 107.431 175.408 107.502L175.8 109.464ZM175.481 108.533L176.503 113.05L178.454 112.609L177.431 108.092L175.481 108.533ZM177.128 111.893C176.856 111.995 176.437 112.111 175.846 112.234L176.256 114.192C176.887 114.06 177.419 113.92 177.83 113.766L177.128 111.893ZM175.825 112.239C175.315 112.358 174.624 112.426 173.729 112.426V114.426C174.709 114.426 175.566 114.353 176.278 114.187L175.825 112.239ZM173.729 112.426C172.456 112.426 171.203 112.154 169.961 111.597L169.144 113.423C170.629 114.088 172.16 114.426 173.729 114.426V112.426ZM169.965 111.599C168.782 111.063 167.796 110.249 166.999 109.137L165.373 110.301C166.366 111.688 167.624 112.735 169.14 113.421L169.965 111.599ZM167.004 109.143C166.268 108.099 165.865 106.737 165.865 104.989H163.865C163.865 107.047 164.343 108.839 165.369 110.295L167.004 109.143ZM165.865 104.989V72.4318H163.865V104.989H165.865ZM189.656 111.594L189.129 112.444L189.136 112.448L189.656 111.594ZM184.393 105.713L183.492 106.148L183.495 106.154L184.393 105.713ZM184.393 88.0284L183.491 87.5952L183.49 87.5973L184.393 88.0284ZM189.549 82.0199L190.095 82.8577L190.096 82.8569L189.549 82.0199ZM202.354 80.6989L202.678 79.7526L202.678 79.7526L202.354 80.6989ZM206.893 83.4688L206.209 84.1983L206.213 84.2021L206.893 83.4688ZM210.153 88.4972L211.085 88.1356L211.085 88.1356L210.153 88.4972ZM211.367 98.3409V99.3409H212.367V98.3409H211.367ZM186.14 98.3409H185.14V99.3409H186.14V98.3409ZM186.14 93.9943V92.9943H185.14V93.9943H186.14ZM206.254 93.9943V94.9943H207.254V93.9943H206.254ZM205.146 89.0511L204.251 89.4984L204.255 89.5053L205.146 89.0511ZM202.035 85.6207L201.503 86.4677L201.507 86.4702L202.035 85.6207ZM192.106 85.8551L192.666 86.6834L192.668 86.6822L192.106 85.8551ZM188.761 89.6903L187.865 89.2464L187.865 89.2464L188.761 89.6903ZM188.867 103.945L187.971 104.389L187.976 104.398L188.867 103.945ZM192.468 107.844L191.964 108.708L191.97 108.711L192.468 107.844ZM201.396 108.611L201.723 109.556L201.73 109.553L201.396 108.611ZM204.187 106.906L204.881 107.626L204.887 107.62L204.187 106.906ZM205.998 104.051L206.268 103.088L205.384 102.84L205.062 103.7L205.998 104.051ZM210.856 105.415L211.811 105.711L212.115 104.73L211.126 104.452L210.856 105.415ZM208.278 109.761L208.993 110.46L208.997 110.456L208.278 109.761ZM203.803 112.659L204.162 113.593L204.168 113.59L203.803 112.659ZM197.816 112.682C194.813 112.682 192.28 112.02 190.175 110.74L189.136 112.448C191.605 113.951 194.512 114.682 197.816 114.682V112.682ZM190.182 110.743C188.077 109.441 186.447 107.626 185.29 105.272L183.495 106.154C184.81 108.828 186.689 110.934 189.129 112.444L190.182 110.743ZM185.293 105.278C184.149 102.909 183.56 100.123 183.56 96.892H181.56C181.56 100.366 182.194 103.46 183.492 106.148L185.293 105.278ZM183.56 96.892C183.56 93.6619 184.149 90.8593 185.295 88.4595L183.49 87.5973C182.194 90.3112 181.56 93.4176 181.56 96.892H183.56ZM185.294 88.4616C186.458 86.0408 188.059 84.184 190.095 82.8577L189.003 81.1821C186.635 82.725 184.799 84.8739 183.491 87.5952L185.294 88.4616ZM190.096 82.8569C192.131 81.5265 194.521 80.8466 197.305 80.8466V78.8466C194.179 78.8466 191.399 79.6156 189.002 81.1829L190.096 82.8569ZM197.305 80.8466C198.896 80.8466 200.47 81.1114 202.031 81.6451L202.678 79.7526C200.915 79.1499 199.123 78.8466 197.305 78.8466V80.8466ZM202.031 81.6451C203.55 82.1645 204.942 83.0105 206.209 84.1983L207.577 82.7392C206.116 81.3702 204.482 80.3696 202.678 79.7526L202.031 81.6451ZM206.213 84.2021C207.445 85.3442 208.454 86.8836 209.22 88.8587L211.085 88.1356C210.232 85.9346 209.068 84.1218 207.573 82.7354L206.213 84.2021ZM209.22 88.8587C209.972 90.7979 210.367 93.2379 210.367 96.2102H212.367C212.367 93.0746 211.952 90.3726 211.085 88.1356L209.22 88.8587ZM210.367 96.2102V98.3409H212.367V96.2102H210.367ZM211.367 97.3409H186.14V99.3409H211.367V97.3409ZM187.14 98.3409V93.9943H185.14V98.3409H187.14ZM186.14 94.9943H206.254V92.9943H186.14V94.9943ZM207.254 93.9943C207.254 92.0114 206.856 90.2045 206.037 88.5969L204.255 89.5053C204.912 90.7955 205.254 92.2841 205.254 93.9943H207.254ZM206.04 88.6039C205.235 86.9931 204.072 85.7089 202.562 84.7712L201.507 86.4702C202.696 87.2087 203.608 88.2115 204.251 89.4983L206.04 88.6039ZM202.566 84.7738C201.049 83.8211 199.281 83.3636 197.305 83.3636V85.3636C198.964 85.3636 200.35 85.7442 201.503 86.4677L202.566 84.7738ZM197.305 83.3636C195.129 83.3636 193.194 83.9066 191.544 85.028L192.668 86.6822C193.944 85.815 195.475 85.3636 197.305 85.3636V83.3636ZM191.546 85.0268C189.952 86.1045 188.722 87.5156 187.865 89.2464L189.657 90.1343C190.362 88.7116 191.361 87.566 192.666 86.6834L191.546 85.0268ZM187.865 89.2464C187.013 90.9646 186.589 92.8074 186.589 94.7614H188.589C188.589 93.1074 188.946 91.5695 189.657 90.1343L187.865 89.2464ZM186.589 94.7614V97.6591H188.589V94.7614H186.589ZM186.589 97.6591C186.589 100.242 187.034 102.498 187.971 104.389L189.763 103.5C188.996 101.954 188.589 100.02 188.589 97.6591H186.589ZM187.976 104.398C188.922 106.26 190.251 107.708 191.964 108.708L192.972 106.98C191.617 106.189 190.545 105.038 189.759 103.491L187.976 104.398ZM191.97 108.711C193.677 109.691 195.636 110.165 197.816 110.165V108.165C195.933 108.165 194.327 107.758 192.966 106.976L191.97 108.711ZM197.816 110.165C199.23 110.165 200.536 109.967 201.723 109.556L201.068 107.666C200.124 107.993 199.044 108.165 197.816 108.165V110.165ZM201.73 109.553C202.936 109.125 203.991 108.483 204.881 107.626L203.493 106.186C202.82 106.835 202.014 107.33 201.061 107.668L201.73 109.553ZM204.887 107.62C205.784 106.74 206.462 105.66 206.934 104.402L205.062 103.7C204.681 104.715 204.153 105.538 203.486 106.193L204.887 107.62ZM205.728 105.014L210.586 106.378L211.126 104.452L206.268 103.088L205.728 105.014ZM209.901 105.118C209.436 106.616 208.658 107.928 207.558 109.067L208.997 110.456C210.312 109.094 211.253 107.509 211.811 105.711L209.901 105.118ZM207.562 109.063C206.464 110.187 205.096 111.078 203.438 111.728L204.168 113.59C206.062 112.848 207.677 111.807 208.993 110.46L207.562 109.063ZM203.445 111.726C201.801 112.357 199.929 112.682 197.816 112.682V114.682C200.135 114.682 202.255 114.325 204.162 113.593L203.445 111.726ZM158.409 186H157.409V187H158.409V186ZM158.409 142.364V141.364H157.409V142.364H158.409ZM183.338 144.984L182.836 145.849L182.839 145.851L183.338 144.984ZM190.263 152.463L189.366 152.906L189.367 152.907L190.263 152.463ZM190.241 175.837L191.137 176.281L191.138 176.279L190.241 175.837ZM183.168 183.379L183.659 184.25L183.662 184.248L183.168 183.379ZM163.693 181.312H162.693V182.312H163.693V181.312ZM185.831 154.999L184.919 155.409L184.92 155.411L185.831 154.999ZM180.675 149.118L180.159 149.974L180.163 149.977L180.675 149.118ZM163.693 147.051V146.051H162.693V147.051H163.693ZM171.875 185H158.409V187H171.875V185ZM159.409 186V142.364H157.409V186H159.409ZM158.409 143.364H172.472V141.364H158.409V143.364ZM172.472 143.364C176.566 143.364 180.007 144.208 182.836 145.849L183.84 144.119C180.646 142.267 176.843 141.364 172.472 141.364V143.364ZM182.839 145.851C185.671 147.481 187.845 149.822 189.366 152.906L191.16 152.021C189.471 148.598 187.028 145.954 183.837 144.118L182.839 145.851ZM189.367 152.907C190.889 155.978 191.67 159.696 191.67 164.097H193.67C193.67 159.463 192.847 155.426 191.159 152.019L189.367 152.907ZM191.67 164.097C191.67 168.525 190.882 172.28 189.345 175.394L191.138 176.279C192.84 172.831 193.67 168.759 193.67 164.097H191.67ZM189.346 175.393C187.812 178.486 185.592 180.85 182.673 182.51L183.662 184.248C186.936 182.386 189.432 179.722 191.137 176.281L189.346 175.393ZM182.676 182.508C179.762 184.152 176.177 185 171.875 185V187C176.437 187 180.38 186.1 183.659 184.25L182.676 182.508ZM163.693 182.312H171.534V180.312H163.693V182.312ZM171.534 182.312C175.266 182.312 178.444 181.593 181.01 180.087L179.998 178.362C177.82 179.64 175.018 180.312 171.534 180.312V182.312ZM181.01 180.087C183.566 178.587 185.473 176.446 186.721 173.692L184.899 172.867C183.817 175.255 182.187 177.077 179.998 178.362L181.01 180.087ZM186.721 173.692C187.957 170.963 188.557 167.754 188.557 164.097H186.557C186.557 167.541 185.992 170.455 184.899 172.867L186.721 173.692ZM188.557 164.097C188.557 160.468 187.964 157.288 186.742 154.586L184.92 155.411C185.999 157.795 186.557 160.68 186.557 164.097H188.557ZM186.743 154.588C185.513 151.855 183.66 149.733 181.187 148.259L180.163 149.977C182.264 151.23 183.848 153.029 184.919 155.409L186.743 154.588ZM181.191 148.261C178.71 146.767 175.672 146.051 172.131 146.051V148.051C175.407 148.051 178.065 148.713 180.159 149.974L181.191 148.261ZM172.131 146.051H163.693V148.051H172.131V146.051ZM162.693 147.051V181.312H164.693V147.051H162.693ZM200.852 186H199.852V187H200.852V186ZM200.852 153.273V152.273H199.852V153.273H200.852ZM205.881 153.273H206.881V152.273H205.881V153.273ZM205.881 186V187H206.881V186H205.881ZM200.874 146.817L200.181 147.538L200.189 147.545L200.874 146.817ZM200.874 142.001L200.189 141.273L200.181 141.28L200.874 142.001ZM205.923 142.001L205.231 142.723L205.238 142.73L205.923 142.001ZM205.923 146.817L205.238 146.088L205.231 146.095L205.923 146.817ZM201.852 186V153.273H199.852V186H201.852ZM200.852 154.273H205.881V152.273H200.852V154.273ZM204.881 153.273V186H206.881V153.273H204.881ZM205.881 185H200.852V187H205.881V185ZM203.409 146.818C202.682 146.818 202.082 146.58 201.558 146.088L200.189 147.545C201.085 148.388 202.176 148.818 203.409 148.818V146.818ZM201.566 146.095C201.06 145.61 200.83 145.065 200.83 144.409H198.83C198.83 145.628 199.295 146.688 200.181 147.538L201.566 146.095ZM200.83 144.409C200.83 143.753 201.06 143.208 201.566 142.723L200.181 141.28C199.295 142.13 198.83 143.19 198.83 144.409H200.83ZM201.558 142.73C202.082 142.238 202.682 142 203.409 142V140C202.176 140 201.085 140.43 200.189 141.273L201.558 142.73ZM203.409 142C204.136 142 204.725 142.237 205.231 142.723L206.616 141.28C205.73 140.43 204.643 140 203.409 140V142ZM205.238 142.73C205.757 143.217 205.989 143.76 205.989 144.409H207.989C207.989 143.184 207.51 142.121 206.608 141.273L205.238 142.73ZM205.989 144.409C205.989 145.059 205.757 145.601 205.238 146.088L206.608 147.545C207.51 146.697 207.989 145.635 207.989 144.409H205.989ZM205.231 146.095C204.725 146.581 204.136 146.818 203.409 146.818V148.818C204.643 148.818 205.73 148.388 206.616 147.538L205.231 146.095ZM220.46 184.509L219.913 185.345L219.913 185.345L220.46 184.509ZM215.389 161.007L214.488 160.572L214.487 160.574L215.389 161.007ZM220.545 155.02L221.091 155.858L221.092 155.857L220.545 155.02ZM234.522 154.125L234.103 155.033L234.522 154.125ZM239.061 157.705L239.854 157.095L239.854 157.095L239.061 157.705ZM241.255 163.074V164.074H242.404L242.246 162.936L241.255 163.074ZM236.227 163.074L235.258 163.323L235.452 164.074H236.227V163.074ZM233.67 159.111L233.005 159.857L233.013 159.865L233.67 159.111ZM223.23 158.898L223.797 159.721L223.799 159.72L223.23 158.898ZM219.799 163.18L218.886 162.773L218.885 162.776L219.799 163.18ZM219.778 176.241L218.857 176.632L218.86 176.638L219.778 176.241ZM223.187 180.609L222.609 181.425L222.613 181.428L223.187 180.609ZM231.944 181.483L231.552 180.563L231.552 180.563L231.944 181.483ZM234.65 179.523L235.406 180.178L235.406 180.178L234.65 179.523ZM236.227 176.455V175.455H235.455L235.26 176.201L236.227 176.455ZM241.255 176.455L242.245 176.6L242.413 175.455H241.255V176.455ZM239.146 181.675L238.336 181.088L238.335 181.089L239.146 181.675ZM234.735 185.339L235.177 186.237L235.18 186.235L234.735 185.339ZM228.386 185.682C225.481 185.682 223.036 184.998 221.007 183.672L219.913 185.345C222.316 186.917 225.155 187.682 228.386 187.682V185.682ZM221.007 183.672C218.956 182.33 217.371 180.482 216.252 178.096L214.441 178.946C215.708 181.646 217.532 183.789 219.913 185.345L221.007 183.672ZM216.252 178.096C215.13 175.707 214.556 172.951 214.556 169.807H212.556C212.556 173.197 213.176 176.251 214.441 178.946L216.252 178.096ZM214.556 169.807C214.556 166.606 215.144 163.826 216.29 161.44L214.487 160.574C213.19 163.274 212.556 166.36 212.556 169.807H214.556ZM216.289 161.442C217.452 159.036 219.054 157.185 221.091 155.858L219.999 154.182C217.633 155.724 215.797 157.865 214.489 160.572L216.289 161.442ZM221.092 155.857C223.127 154.526 225.517 153.847 228.301 153.847V151.847C225.175 151.847 222.395 152.616 219.998 154.183L221.092 155.857ZM228.301 153.847C230.476 153.847 232.404 154.249 234.103 155.033L234.941 153.217C232.947 152.297 230.728 151.847 228.301 151.847V153.847ZM234.103 155.033C235.811 155.821 237.193 156.915 238.268 158.314L239.854 157.095C238.571 155.426 236.927 154.134 234.941 153.217L234.103 155.033ZM238.268 158.314C239.334 159.701 240.003 161.326 240.265 163.211L242.246 162.936C241.94 160.731 241.145 158.776 239.854 157.095L238.268 158.314ZM241.255 162.074H236.227V164.074H241.255V162.074ZM237.195 162.825C236.755 161.111 235.779 159.621 234.327 158.357L233.013 159.865C234.203 160.901 234.932 162.054 235.258 163.323L237.195 162.825ZM234.335 158.364C232.801 156.996 230.78 156.364 228.386 156.364V158.364C230.424 158.364 231.926 158.896 233.005 159.857L234.335 158.364ZM228.386 156.364C226.242 156.364 224.32 156.926 222.661 158.076L223.799 159.72C225.094 158.824 226.61 158.364 228.386 158.364V156.364ZM222.662 158.074C221.028 159.201 219.774 160.782 218.886 162.773L220.713 163.588C221.472 161.885 222.505 160.612 223.797 159.721L222.662 158.074ZM218.885 162.776C218.007 164.762 217.585 167.057 217.585 169.636H219.585C219.585 167.272 219.972 165.264 220.714 163.585L218.885 162.776ZM217.585 169.636C217.585 172.268 217.999 174.608 218.857 176.632L220.699 175.851C219.967 174.125 219.585 172.062 219.585 169.636H217.585ZM218.86 176.638C219.732 178.657 220.976 180.268 222.609 181.425L223.765 179.794C222.472 178.877 221.443 177.576 220.696 175.845L218.86 176.638ZM222.613 181.428C224.275 182.595 226.214 183.165 228.386 183.165V181.165C226.581 181.165 225.054 180.698 223.762 179.791L222.613 181.428ZM228.386 183.165C229.81 183.165 231.132 182.917 232.337 182.403L231.552 180.563C230.625 180.958 229.575 181.165 228.386 181.165V183.165ZM232.337 182.403C233.538 181.89 234.565 181.148 235.406 180.178L233.895 178.868C233.258 179.602 232.481 180.167 231.552 180.563L232.337 182.403ZM235.406 180.178C236.254 179.199 236.847 178.035 237.194 176.708L235.26 176.201C234.982 177.26 234.524 178.142 233.895 178.868L235.406 180.178ZM236.227 177.455H241.255V175.455H236.227V177.455ZM240.266 176.309C240.005 178.085 239.362 179.673 238.336 181.088L239.956 182.262C241.174 180.58 241.938 178.688 242.245 176.6L240.266 176.309ZM238.335 181.089C237.33 182.481 235.99 183.601 234.291 184.444L235.18 186.235C237.146 185.26 238.746 183.936 239.957 182.26L238.335 181.089ZM234.294 184.442C232.637 185.258 230.677 185.682 228.386 185.682V187.682C230.925 187.682 233.198 187.211 235.177 186.237L234.294 184.442ZM254.167 184.594L253.641 185.444L253.647 185.448L254.167 184.594ZM248.904 178.713L248.004 179.148L248.007 179.154L248.904 178.713ZM248.904 161.028L248.003 160.595L248.002 160.597L248.904 161.028ZM254.061 155.02L254.607 155.858L254.608 155.857L254.061 155.02ZM266.866 153.699L267.19 152.753L267.19 152.753L266.866 153.699ZM271.404 156.469L270.721 157.198L270.725 157.202L271.404 156.469ZM274.664 161.497L275.597 161.136L275.597 161.136L274.664 161.497ZM275.879 171.341V172.341H276.879V171.341H275.879ZM250.652 171.341H249.652V172.341H250.652V171.341ZM250.652 166.994V165.994H249.652V166.994H250.652ZM270.765 166.994V167.994H271.765V166.994H270.765ZM269.657 162.051L268.763 162.498L268.766 162.505L269.657 162.051ZM266.547 158.621L266.015 159.468L266.019 159.47L266.547 158.621ZM256.618 158.855L257.178 159.683L257.18 159.682L256.618 158.855ZM253.272 162.69L252.376 162.246L252.376 162.246L253.272 162.69ZM253.379 176.945L252.483 177.389L252.487 177.398L253.379 176.945ZM256.98 180.844L256.476 181.708L256.482 181.711L256.98 180.844ZM265.907 181.611L266.235 182.556L266.242 182.553L265.907 181.611ZM268.699 179.906L269.392 180.626L269.399 180.62L268.699 179.906ZM270.51 177.051L270.78 176.088L269.896 175.84L269.573 176.7L270.51 177.051ZM275.368 178.415L276.323 178.711L276.627 177.73L275.638 177.452L275.368 178.415ZM272.789 182.761L273.505 183.46L273.509 183.456L272.789 182.761ZM268.315 185.659L268.673 186.593L268.68 186.59L268.315 185.659ZM262.328 185.682C259.325 185.682 256.791 185.02 254.687 183.74L253.647 185.448C256.117 186.951 259.024 187.682 262.328 187.682V185.682ZM254.693 183.743C252.588 182.441 250.959 180.626 249.802 178.272L248.007 179.154C249.321 181.828 251.201 183.934 253.641 185.444L254.693 183.743ZM249.805 178.278C248.66 175.909 248.072 173.123 248.072 169.892H246.072C246.072 173.366 246.705 176.46 248.004 179.148L249.805 178.278ZM248.072 169.892C248.072 166.662 248.66 163.859 249.807 161.46L248.002 160.597C246.706 163.311 246.072 166.418 246.072 169.892H248.072ZM249.806 161.462C250.969 159.041 252.571 157.184 254.607 155.858L253.515 154.182C251.147 155.725 249.311 157.874 248.003 160.595L249.806 161.462ZM254.608 155.857C256.643 154.526 259.033 153.847 261.816 153.847V151.847C258.691 151.847 255.911 152.616 253.513 154.183L254.608 155.857ZM261.816 153.847C263.408 153.847 264.982 154.111 266.543 154.645L267.19 152.753C265.427 152.15 263.634 151.847 261.816 151.847V153.847ZM266.543 154.645C268.062 155.165 269.454 156.011 270.721 157.198L272.088 155.739C270.628 154.37 268.994 153.37 267.19 152.753L266.543 154.645ZM270.725 157.202C271.957 158.344 272.966 159.884 273.732 161.859L275.597 161.136C274.743 158.935 273.58 157.122 272.084 155.735L270.725 157.202ZM273.732 161.859C274.484 163.798 274.879 166.238 274.879 169.21H276.879C276.879 166.075 276.464 163.373 275.597 161.136L273.732 161.859ZM274.879 169.21V171.341H276.879V169.21H274.879ZM275.879 170.341H250.652V172.341H275.879V170.341ZM251.652 171.341V166.994H249.652V171.341H251.652ZM250.652 167.994H270.765V165.994H250.652V167.994ZM271.765 166.994C271.765 165.011 271.368 163.204 270.548 161.597L268.766 162.505C269.424 163.796 269.765 165.284 269.765 166.994H271.765ZM270.552 161.604C269.746 159.993 268.584 158.709 267.074 157.771L266.019 159.47C267.208 160.209 268.119 161.211 268.763 162.498L270.552 161.604ZM267.078 157.774C265.56 156.821 263.793 156.364 261.816 156.364V158.364C263.476 158.364 264.862 158.744 266.015 159.468L267.078 157.774ZM261.816 156.364C259.641 156.364 257.706 156.907 256.055 158.028L257.18 159.682C258.456 158.815 259.987 158.364 261.816 158.364V156.364ZM256.057 158.027C254.464 159.104 253.234 160.516 252.376 162.246L254.168 163.134C254.873 161.712 255.873 160.566 257.178 159.683L256.057 158.027ZM252.376 162.246C251.525 163.965 251.1 165.807 251.1 167.761H253.1C253.1 166.107 253.457 164.569 254.168 163.134L252.376 162.246ZM251.1 167.761V170.659H253.1V167.761H251.1ZM251.1 170.659C251.1 173.242 251.545 175.498 252.483 177.389L254.275 176.5C253.508 174.954 253.1 173.02 253.1 170.659H251.1ZM252.487 177.398C253.434 179.26 254.763 180.708 256.476 181.708L257.484 179.98C256.128 179.189 255.057 178.038 254.27 176.491L252.487 177.398ZM256.482 181.711C258.189 182.691 260.148 183.165 262.328 183.165V181.165C260.445 181.165 258.839 180.758 257.478 179.976L256.482 181.711ZM262.328 183.165C263.742 183.165 265.048 182.967 266.235 182.556L265.58 180.666C264.636 180.993 263.556 181.165 262.328 181.165V183.165ZM266.242 182.553C267.448 182.125 268.503 181.483 269.392 180.626L268.005 179.186C267.332 179.835 266.526 180.33 265.573 180.668L266.242 182.553ZM269.399 180.62C270.295 179.74 270.974 178.66 271.446 177.402L269.573 176.7C269.193 177.715 268.664 178.538 267.998 179.193L269.399 180.62ZM270.239 178.014L275.097 179.378L275.638 177.452L270.78 176.088L270.239 178.014ZM274.412 178.118C273.948 179.616 273.17 180.928 272.07 182.067L273.509 183.456C274.824 182.094 275.765 180.509 276.323 178.711L274.412 178.118ZM272.074 182.063C270.976 183.187 269.607 184.078 267.95 184.728L268.68 186.59C270.574 185.848 272.188 184.807 273.505 183.46L272.074 182.063ZM267.957 184.726C266.313 185.357 264.441 185.682 262.328 185.682V187.682C264.646 187.682 266.766 187.325 268.673 186.593L267.957 184.726Z" fill="#C99683"/>
</g>
<path d="M3.06818 47.1818V17.1818H6.30682V20.6477H6.70455C6.95076 20.2689 7.29167 19.786 7.72727 19.1989C8.17235 18.6023 8.80682 18.072 9.63068 17.608C10.464 17.1345 11.5909 16.8977 13.0114 16.8977C14.8485 16.8977 16.4678 17.357 17.8693 18.2756C19.2708 19.1941 20.3646 20.4962 21.1506 22.1818C21.9366 23.8674 22.3295 25.8561 22.3295 28.1477C22.3295 30.4583 21.9366 32.4612 21.1506 34.1562C20.3646 35.8419 19.2756 37.1487 17.8835 38.0767C16.4915 38.9953 14.8864 39.4545 13.0682 39.4545C11.6667 39.4545 10.5445 39.2225 9.7017 38.7585C8.8589 38.285 8.21023 37.75 7.75568 37.1534C7.30114 36.5473 6.95076 36.0455 6.70455 35.6477H6.42045V47.1818H3.06818ZM6.36364 28.0909C6.36364 29.7386 6.60511 31.1922 7.08807 32.4517C7.57102 33.7017 8.27652 34.6818 9.20455 35.392C10.1326 36.0928 11.2689 36.4432 12.6136 36.4432C14.0152 36.4432 15.1847 36.0739 16.1222 35.3352C17.0691 34.5871 17.7794 33.5833 18.2528 32.3239C18.7358 31.0549 18.9773 29.6439 18.9773 28.0909C18.9773 26.5568 18.7405 25.1742 18.267 23.9432C17.803 22.7027 17.0975 21.7225 16.1506 21.0028C15.2131 20.2737 14.0341 19.9091 12.6136 19.9091C11.25 19.9091 10.1042 20.2547 9.17614 20.946C8.24811 21.6278 7.54735 22.5843 7.07386 23.8153C6.60038 25.0369 6.36364 26.4621 6.36364 28.0909ZM27.4432 39V17.1818H30.6818V20.4773H30.9091C31.3068 19.3977 32.0265 18.5218 33.0682 17.8494C34.1098 17.1771 35.2841 16.8409 36.5909 16.8409C36.8371 16.8409 37.1449 16.8456 37.5142 16.8551C37.8835 16.8646 38.1629 16.8788 38.3523 16.8977V20.3068C38.2386 20.2784 37.9782 20.2358 37.571 20.179C37.1733 20.1127 36.7519 20.0795 36.3068 20.0795C35.2462 20.0795 34.2992 20.3021 33.4659 20.7472C32.642 21.1828 31.9886 21.7888 31.5057 22.5653C31.0322 23.3324 30.7955 24.2083 30.7955 25.1932V39H27.4432ZM42.326 39V17.1818H45.6783V39H42.326ZM44.0305 13.5455C43.3771 13.5455 42.8137 13.3229 42.3402 12.8778C41.8762 12.4328 41.6442 11.8977 41.6442 11.2727C41.6442 10.6477 41.8762 10.1127 42.3402 9.66761C42.8137 9.22254 43.3771 9 44.0305 9C44.6839 9 45.2427 9.22254 45.7067 9.66761C46.1802 10.1127 46.4169 10.6477 46.4169 11.2727C46.4169 11.8977 46.1802 12.4328 45.7067 12.8778C45.2427 13.3229 44.6839 13.5455 44.0305 13.5455ZM55.1705 25.875V39H51.8182V17.1818H55.0568V20.5909H55.3409C55.8523 19.483 56.6288 18.5928 57.6705 17.9205C58.7121 17.2386 60.0568 16.8977 61.7045 16.8977C63.1818 16.8977 64.4744 17.2008 65.5824 17.8068C66.6903 18.4034 67.5521 19.3125 68.1676 20.5341C68.7831 21.7462 69.0909 23.2803 69.0909 25.1364V39H65.7386V25.3636C65.7386 23.6496 65.2936 22.3144 64.4034 21.358C63.5133 20.392 62.2917 19.9091 60.7386 19.9091C59.6686 19.9091 58.7121 20.1411 57.8693 20.6051C57.036 21.0691 56.3778 21.7462 55.8949 22.6364C55.4119 23.5265 55.1705 24.6061 55.1705 25.875ZM84.7053 17.1818V20.0227H73.3984V17.1818H84.7053ZM76.6939 11.9545H80.0462V32.75C80.0462 33.697 80.1835 34.4072 80.4581 34.8807C80.7422 35.3447 81.102 35.6572 81.5376 35.8182C81.9827 35.9697 82.4515 36.0455 82.9439 36.0455C83.3132 36.0455 83.6162 36.0265 83.853 35.9886C84.0897 35.9413 84.2791 35.9034 84.4212 35.875L85.103 38.8864C84.8757 38.9716 84.5585 39.0568 84.1513 39.142C83.7441 39.2367 83.228 39.2841 82.603 39.2841C81.656 39.2841 80.728 39.0805 79.8189 38.6733C78.9193 38.2661 78.1712 37.6458 77.5746 36.8125C76.9875 35.9792 76.6939 34.928 76.6939 33.6591V11.9545Z" fill="#D7DBB5"/>
<path d="M90.9411 26.7273C90.9411 23.1477 91.4051 19.857 92.3331 16.8551C93.2706 13.8437 94.6058 11.0739 96.3388 8.54545H99.2933C98.6115 9.48295 97.9723 10.6383 97.3757 12.0114C96.7886 13.375 96.2725 14.8759 95.8274 16.5142C95.3823 18.143 95.032 19.8286 94.7763 21.571C94.5301 23.3134 94.407 25.0322 94.407 26.7273C94.407 28.9811 94.6248 31.268 95.0604 33.5881C95.496 35.9081 96.0831 38.0625 96.8217 40.0511C97.5604 42.0398 98.3842 43.6591 99.2933 44.9091H96.3388C94.6058 42.3807 93.2706 39.6155 92.3331 36.6136C91.4051 33.6023 90.9411 30.3068 90.9411 26.7273Z" fill="#DDDDDD"/>
<path d="M107.195 9.90909V12.4659C107.195 13.2424 107.053 14.071 106.768 14.9517C106.494 15.8229 106.087 16.6705 105.547 17.4943C105.017 18.3087 104.373 19.0189 103.615 19.625L101.797 18.1477C102.393 17.2955 102.91 16.41 103.345 15.4915C103.79 14.5634 104.013 13.5739 104.013 12.5227V9.90909H107.195ZM114.467 9.90909V12.4659C114.467 13.2424 114.325 14.071 114.041 14.9517C113.767 15.8229 113.359 16.6705 112.82 17.4943C112.289 18.3087 111.645 19.0189 110.888 19.625L109.07 18.1477C109.666 17.2955 110.182 16.41 110.618 15.4915C111.063 14.5634 111.286 13.5739 111.286 12.5227V9.90909H114.467ZM122.429 9.90909V12.4659C122.429 13.2424 122.287 14.071 122.003 14.9517C121.728 15.8229 121.321 16.6705 120.781 17.4943C120.251 18.3087 119.607 19.0189 118.849 19.625L117.031 18.1477C117.628 17.2955 118.144 16.41 118.58 15.4915C119.025 14.5634 119.247 13.5739 119.247 12.5227V9.90909H122.429ZM129.702 9.90909V12.4659C129.702 13.2424 129.56 14.071 129.276 14.9517C129.001 15.8229 128.594 16.6705 128.054 17.4943C127.524 18.3087 126.88 19.0189 126.122 19.625L124.304 18.1477C124.901 17.2955 125.417 16.41 125.852 15.4915C126.297 14.5634 126.52 13.5739 126.52 12.5227V9.90909H129.702ZM137.663 9.90909V12.4659C137.663 13.2424 137.521 14.071 137.237 14.9517C136.963 15.8229 136.555 16.6705 136.016 17.4943C135.485 18.3087 134.841 19.0189 134.084 19.625L132.266 18.1477C132.862 17.2955 133.378 16.41 133.814 15.4915C134.259 14.5634 134.482 13.5739 134.482 12.5227V9.90909H137.663ZM144.936 9.90909V12.4659C144.936 13.2424 144.794 14.071 144.51 14.9517C144.235 15.8229 143.828 16.6705 143.288 17.4943C142.758 18.3087 142.114 19.0189 141.357 19.625L139.538 18.1477C140.135 17.2955 140.651 16.41 141.087 15.4915C141.532 14.5634 141.754 13.5739 141.754 12.5227V9.90909H144.936Z" fill="#C99683"/>
<path d="M94.0227 225.909V228.466C94.0227 229.242 93.8807 230.071 93.5966 230.952C93.322 231.823 92.9148 232.67 92.375 233.494C91.8447 234.309 91.2008 235.019 90.4432 235.625L88.625 234.148C89.2216 233.295 89.7377 232.41 90.1733 231.491C90.6184 230.563 90.8409 229.574 90.8409 228.523V225.909H94.0227ZM101.295 225.909V228.466C101.295 229.242 101.153 230.071 100.869 230.952C100.595 231.823 100.188 232.67 99.6477 233.494C99.1174 234.309 98.4735 235.019 97.7159 235.625L95.8977 234.148C96.4943 233.295 97.0104 232.41 97.446 231.491C97.8911 230.563 98.1136 229.574 98.1136 228.523V225.909H101.295ZM109.257 225.909V228.466C109.257 229.242 109.115 230.071 108.831 230.952C108.556 231.823 108.149 232.67 107.609 233.494C107.079 234.309 106.435 235.019 105.678 235.625L103.859 234.148C104.456 233.295 104.972 232.41 105.408 231.491C105.853 230.563 106.075 229.574 106.075 228.523V225.909H109.257ZM116.53 225.909V228.466C116.53 229.242 116.388 230.071 116.104 230.952C115.829 231.823 115.422 232.67 114.882 233.494C114.352 234.309 113.708 235.019 112.95 235.625L111.132 234.148C111.729 233.295 112.245 232.41 112.68 231.491C113.125 230.563 113.348 229.574 113.348 228.523V225.909H116.53ZM124.491 225.909V228.466C124.491 229.242 124.349 230.071 124.065 230.952C123.791 231.823 123.384 232.67 122.844 233.494C122.313 234.309 121.67 235.019 120.912 235.625L119.094 234.148C119.69 233.295 120.206 232.41 120.642 231.491C121.087 230.563 121.31 229.574 121.31 228.523V225.909H124.491ZM131.764 225.909V228.466C131.764 229.242 131.622 230.071 131.338 230.952C131.063 231.823 130.656 232.67 130.116 233.494C129.586 234.309 128.942 235.019 128.185 235.625L126.366 234.148C126.963 233.295 127.479 232.41 127.915 231.491C128.36 230.563 128.582 229.574 128.582 228.523V225.909H131.764Z" fill="#C99683"/>
<path d="M143.93 242.727C143.93 246.307 143.462 249.602 142.524 252.614C141.596 255.616 140.266 258.381 138.533 260.909H135.578C136.26 259.972 136.894 258.816 137.482 257.443C138.078 256.08 138.599 254.583 139.044 252.955C139.489 251.316 139.835 249.626 140.081 247.884C140.337 246.132 140.464 244.413 140.464 242.727C140.464 240.473 140.247 238.187 139.811 235.866C139.375 233.546 138.788 231.392 138.05 229.403C137.311 227.415 136.487 225.795 135.578 224.545H138.533C140.266 227.074 141.596 229.844 142.524 232.855C143.462 235.857 143.93 239.148 143.93 242.727Z" fill="#DDDDDD"/>
</g>
<defs>
<filter id="filter0_d_11_5" x="90.9091" y="69.3636" width="193.97" height="126.318" filterUnits="userSpaceOnUse" color-interpolation-filters="sRGB">
<feFlood flood-opacity="0" result="BackgroundImageFix"/>
<feColorMatrix in="SourceAlpha" type="matrix" values="0 0 0 0 0 0 0 0 0 0 0 0 0 0 0 0 0 0 127 0" result="hardAlpha"/>
<feOffset dx="5" dy="5"/>
<feGaussianBlur stdDeviation="2"/>
<feComposite in2="hardAlpha" operator="out"/>
<feColorMatrix type="matrix" values="0 0 0 0 0.866667 0 0 0 0 0.666667 0 0 0 0 0.592157 0 0 0 0.3 0"/>
<feBlend mode="normal" in2="BackgroundImageFix" result="effect1_dropShadow_11_5"/>
<feBlend mode="normal" in="SourceGraphic" in2="effect1_dropShadow_11_5" result="shape"/>
</filter>
<clipPath id="clip0_11_5">
<rect width="295" height="277" fill="white"/>
</clipPath>
</defs>
</svg>
